<svg xmlns="http://www.w3.org/2000/svg" version="1.1" xmlns:xlink="http://www.w3.org/1999/xlink" xmlns:svgjs="http://svgjs.dev/svgjs" width="1000" height="1000" viewBox="0 0 1000 1000"><rect width="1000" height="1000" fill="#7367f0"></rect><g transform="matrix(0.7,0,0,0.7,149.5757581441091,405.85639404409847)"><svg viewBox="0 0 396 107" data-background-color="#7367f0" preserveAspectRatio="xMidYMid meet" height="270" width="1000" xmlns="http://www.w3.org/2000/svg" xmlns:xlink="http://www.w3.org/1999/xlink"><g id="tight-bounds" transform="matrix(1,0,0,1,0.23999967847544212,-0.20176805671184184)"><svg viewBox="0 0 395.52 107.40353611342367" height="107.40353611342367" width="395.52"><g><svg viewBox="0 0 578.5600918168693 157.10811012145743" height="107.40353611342367" width="395.52"><g><rect width="6.507317226962914" height="157.10811012145743" x="159.4979127392182" y="0" fill="#454545" opacity="1" stroke-width="0" stroke="transparent" fill-opacity="1" class="rect-o-0" data-fill-palette-color="primary" rx="1%" id="o-0" data-palette-color="#454545"></rect></g><g transform="matrix(1,0,0,1,183.0400918168694,0.39081619433197545)"><svg viewBox="0 0 395.5199999999999 156.32647773279348" height="156.32647773279348" width="395.5199999999999"><g><svg viewBox="0 0 395.5199999999999 156.32647773279348" height="156.32647773279348" width="395.5199999999999"><g><svg viewBox="0 0 395.5199999999999 156.32647773279348" height="156.32647773279348" width="395.5199999999999"><g transform="matrix(1,0,0,1,0,0)"><svg width="395.5199999999999" viewBox="1.7499995231628418 -35.5 200.5 74.8499984741211" height="156.32647773279348" data-palette-color="#454545"><svg></svg><svg></svg><g class="undefined-text-0" data-fill-palette-color="primary" id="text-0"><path xmlns="http://www.w3.org/2000/svg" d="M39.35 0h-2.55v-30.55l-13.95 23.9h-1.7l-13.95-23.9v30.55h-2.55v-35.5h2.55l14.8 25.4 14.8-25.4h2.55zM51.2-2.3h21.1v2.3h-23.65v-35.5h23.2v2.3h-20.65v13.95h18.05v2.2h-18.05zM106.15 0l-24.35-30.75v30.75h-2.55v-35.5h2.1l24.75 31.25v-31.25h2.55v35.5zM142.7-35.5v2.3h-13v33.2h-2.55v-33.2h-13v-2.3zM140.8 0l15.1-35.5h2.2l15 35.5h-2.7l-4.95-11.7h-16.95l-4.95 11.7zM149.1-13.8h15.65l-7.75-18.6zM202.25 0h-23.75v-35.5h2.55v33.2h21.2z" fill="#454545" fill-rule="nonzero" stroke="none" stroke-width="1" stroke-linecap="butt" stroke-linejoin="miter" stroke-miterlimit="10" stroke-dasharray="" stroke-dashoffset="0" font-family="none" font-weight="none" font-size="none" text-anchor="none" style="mix-blend-mode: normal" data-fill-palette-color="primary" opacity="1"></path><path xmlns="http://www.w3.org/2000/svg" d="M26.6 7.45l-1.3 2c-0.567-0.633-1.2-1.193-1.9-1.68-0.7-0.48-1.45-0.88-2.25-1.2-0.8-0.313-1.667-0.553-2.6-0.72-0.933-0.167-1.933-0.25-3-0.25v0c-3.467 0-5.99 0.657-7.57 1.97-1.587 1.32-2.38 3.097-2.38 5.33v0c0 1.5 0.36 2.69 1.08 3.57 0.713 0.887 1.837 1.597 3.37 2.13 1.533 0.533 3.517 1.05 5.95 1.55v0c2.567 0.533 4.783 1.157 6.65 1.87 1.867 0.72 3.31 1.697 4.33 2.93 1.013 1.233 1.52 2.9 1.52 5v0c0 1.567-0.3 2.94-0.9 4.12-0.6 1.187-1.467 2.163-2.6 2.93-1.133 0.767-2.473 1.35-4.02 1.75-1.553 0.4-3.28 0.6-5.18 0.6v0c-1.833 0-3.583-0.2-5.25-0.6-1.667-0.4-3.233-0.983-4.7-1.75-1.467-0.767-2.833-1.75-4.1-2.95v0l1.35-2.05c0.733 0.8 1.56 1.507 2.48 2.12 0.913 0.62 1.913 1.147 3 1.58 1.08 0.433 2.237 0.773 3.47 1.02 1.233 0.253 2.517 0.38 3.85 0.38v0c3.1 0 5.527-0.577 7.28-1.73 1.747-1.147 2.62-2.853 2.62-5.12v0c0-1.567-0.4-2.833-1.2-3.8-0.8-0.967-2.033-1.76-3.7-2.38-1.667-0.613-3.75-1.187-6.25-1.72v0c-2.5-0.533-4.623-1.133-6.37-1.8-1.753-0.667-3.07-1.567-3.95-2.7-0.887-1.133-1.33-2.667-1.33-4.6v0c0-2.133 0.527-3.943 1.58-5.43 1.047-1.48 2.52-2.603 4.42-3.37 1.9-0.767 4.083-1.15 6.55-1.15v0c1.533 0 2.96 0.15 4.28 0.45 1.313 0.3 2.53 0.757 3.65 1.37 1.113 0.62 2.153 1.397 3.12 2.33zM37.45 39.05h-2.55v-35.5h14.6c1.5 0 2.877 0.317 4.13 0.95 1.247 0.633 2.337 1.477 3.27 2.53 0.933 1.047 1.66 2.22 2.18 3.52 0.513 1.3 0.77 2.633 0.77 4v0c0 1.9-0.423 3.69-1.27 5.37-0.853 1.687-2.02 3.063-3.5 4.13-1.487 1.067-3.247 1.6-5.28 1.6v0h-12.35zM37.45 5.85v17.45h12.25c1.567 0 2.917-0.417 4.05-1.25 1.133-0.833 2-1.917 2.6-3.25 0.6-1.333 0.9-2.75 0.9-4.25v0c0-1.567-0.36-3.01-1.08-4.33-0.713-1.313-1.66-2.37-2.84-3.17-1.187-0.8-2.497-1.2-3.93-1.2v0zM59.6 39.05l15.1-35.5h2.2l15 35.5h-2.7l-4.95-11.7h-16.95l-4.95 11.7zM67.9 25.25h15.65l-7.75-18.6zM93.55 21.05v0c0-2.133 0.377-4.243 1.13-6.33 0.747-2.08 1.837-3.98 3.27-5.7 1.433-1.713 3.193-3.087 5.28-4.12 2.08-1.033 4.453-1.55 7.12-1.55v0c3.167 0 5.867 0.727 8.1 2.18 2.233 1.447 3.9 3.303 5 5.57v0l-2.1 1.2c-0.833-1.633-1.857-2.933-3.07-3.9-1.22-0.967-2.53-1.66-3.93-2.08-1.4-0.413-2.8-0.62-4.2-0.62v0c-2.233 0-4.223 0.45-5.97 1.35-1.753 0.9-3.23 2.1-4.43 3.6-1.2 1.5-2.107 3.167-2.72 5-0.62 1.833-0.93 3.683-0.93 5.55v0c0 2.1 0.367 4.09 1.1 5.97 0.733 1.887 1.743 3.563 3.03 5.03 1.28 1.467 2.78 2.633 4.5 3.5 1.713 0.867 3.57 1.3 5.57 1.3v0c1.433 0 2.893-0.243 4.38-0.73 1.48-0.48 2.87-1.23 4.17-2.25 1.3-1.013 2.35-2.337 3.15-3.97v0l2.2 1.05c-0.767 1.767-1.917 3.267-3.45 4.5-1.533 1.233-3.233 2.167-5.1 2.8-1.867 0.633-3.717 0.95-5.55 0.95v0c-2.4 0-4.617-0.527-6.65-1.58-2.033-1.047-3.79-2.447-5.27-4.2-1.487-1.747-2.63-3.713-3.43-5.9-0.8-2.18-1.2-4.387-1.2-6.62zM133.05 36.75h21.1v2.3h-23.65v-35.5h23.2v2.3h-20.65v13.95h18.05v2.2h-18.05z" fill="#454545" fill-rule="nonzero" stroke="none" stroke-width="1" stroke-linecap="butt" stroke-linejoin="miter" stroke-miterlimit="10" stroke-dasharray="" stroke-dashoffset="0" font-family="none" font-weight="none" font-size="none" text-anchor="none" style="mix-blend-mode: normal" data-fill-palette-color="primary" opacity="1"></path></g></svg></g></svg></g></svg></g></svg></g><g transform="matrix(1,0,0,1,0,0.39081619433197545)"><svg viewBox="0 0 142.46305088852995 156.32647773279348" height="156.32647773279348" width="142.46305088852995"><g><svg xmlns="http://www.w3.org/2000/svg" xmlns:xlink="http://www.w3.org/1999/xlink" version="1.1" x="0" y="0" viewBox="4.645150184631348 0 82.10970306396484 90.0999984741211" enable-background="new 0 0 90 90" xml:space="preserve" width="142.46305088852995" height="156.32647773279348" class="icon-icon-0" data-fill-palette-color="accent" id="icon-0"><g fill="#454545" data-fill-palette-color="accent"><path d="M51.1 39.7C51.1 39.7 51.1 39.7 51.1 39.7 51.1 39.7 51.1 39.7 51.1 39.7z" fill="#454545" data-fill-palette-color="accent"></path><path d="M51.2 39.7C51.1 39.7 51.1 39.7 51.2 39.7 51.1 39.7 51.1 39.7 51.2 39.7z" fill="#454545" data-fill-palette-color="accent"></path><path d="M85.7 51.4c-0.4-0.6-0.9-1.2-1.3-1.8-3-4.1-3.5-8.5-1.9-13.4 2.4-7.3 0.5-19.8-3.7-26.2-0.3-0.5-0.7-0.9-1-1.3 1 2.2 2.1 4.3 2.8 6.6 0.8 2.3 1 4.8-0.6 7.1 0-12.1-7.1-18.2-17.5-21.6C69.3 3.3 74.7 7.4 77 14.9c1.2 4.2 0.6 10-1.5 13.4 0-1.1 0-1.8 0-2.5 0.8-9.3-3.5-15.8-11.4-20.4C58.1 2 53.8 0.6 44.1 1.8c-7.5 0.9-14 3.9-19.2 9.4-8.6 8.9-9.3 23.5-1.5 33.2 0.3 0.4 0.7 0.8 1 1.2 0 0 0 0 0 0 2.3 2.2 5.9 4.7 5.9 4.7l0 0c0.1 0.1 0.2 0.2 0.3 0.2 14.6 7.7 28-2.8 30.6-7.8 0 0 0 0 0-0.1 2.9-5.3 3.8-10.7 2.1-16.4-2.1-7.1-6.9-11.5-13.2-13.3 1.8 1.3 4.4 2.8 6.4 4.8 6.6 6.8 5.7 17.4 4.3 21.1-0.2 0.5-0.4 0.9-0.5 1.3 0 0 0 0 0 0-5.2 10.7-21.1 13.1-26.7 9.3 0 0-0.1 0-0.1 0 0 0-0.1 0-0.1 0l0 0c0 0-0.1 0-0.1-0.1-4.5-2.2-8.7-7.2-8.7-7.2l-0.1 0c-0.2-0.3-0.4-0.6-0.6-0.9-6-8.8-4.2-21.9 3.9-29.2 10.8-9.7 26.7-9.7 37.3 0 5.3 4.9 7.6 11.2 7.1 18.3-0.2 3.7-0.7 10.7-6.8 20.5-0.8 1.2-1.7 2.7-2.7 4.1-2.5 3.3-5 6.4-7.6 9.6-5.1 6.2-4.9 13.4 0.8 19 2.5 2.4 5.4 4.4 8.1 6.6 0.2-0.2 0.3-0.3 0.5-0.5-0.7-0.9-1.5-1.9-2.2-2.8-2.2-3-3.6-6.1-2.9-9.9 0.6-3 1.3-3.5 4.1-2.5 2.4 0.8 4.8 1.6 7.2 2.2 1.2 0.3 2.6 0.2 3.9 0 3-0.6 4.4-3 4-6-0.1-0.9 0.1-2.1 0.6-2.9 0.7-1.1 1-2 0.6-3.4-0.2-0.5 0.3-1.6 0.8-1.9 1.1-0.6 1.5-1.3 1.3-2.5-0.2-1.3 0.4-2.2 1.6-2.7 0.3-0.1 0.6-0.3 0.9-0.5C87.1 55.1 87.4 53.8 85.7 51.4z" fill="#454545" data-fill-palette-color="accent"></path><path d="M53.1 18.8c4.1 4.3 4.7 8 4 12.7-0.9 5.9-4.5 8.3-4.5 8.3C45.1 46 33.4 43.2 31 35c-1.4-4.7-0.5-8.8 3.1-12.1 3.4-3.2 7.4-4 11.8-2.2 4.6 1.9 7 7 5.8 11.6-1.2 4.5-5.3 7.3-10.1 6.8-3.9-0.4-7-4-7.1-8.1 0-3.8 2.9-7 6.8-7.4 3.5-0.4 6.7 2.2 7.3 5.9 0.5 3.2-1.8 6.1-5 6.7-2.8 0.5-5.6-1.4-6.2-4.2-0.6-2.7 1-5.1 3.7-5.7 1.8-0.4 3.1 0.2 4.2 1.6 0.8 1.1 0.3 2.3 0.2 2.4-0.9 1.4-2.9 2.3-4.6 1.9C40.1 32 39.2 31 40.2 30c-0.8 0.3-1.4 1.5 0.2 2.2 1.9 0.9 4.2 0.2 5.5-1.2 1.3-1.4 1.2-3.5-1-4.9-2-1.2-3.7-1.2-5.7-0.1-2.1 1.2-2.9 3.1-2.7 5.4 0.3 3.6 3.4 6 7 5.6 3.9-0.5 6.6-3.9 6.1-7.8-0.5-3.8-3.4-6.6-7.1-6.8-4.2-0.2-7.9 2.4-8.9 6.4-0.9 4 0.8 8.1 4.3 10.3 3.5 2.2 8.5 1.7 11.8-1.1 3.8-3.2 4.9-8.8 2.6-13.3-2.4-4.8-7.9-7.4-13.2-6.2-5.4 1.2-9.4 5.4-10.2 10.9-0.8 5.1 1.9 11.5 6.4 13.8 10.6 5.6 18.9-2.3 19.4-2.7 0 0 0 0 0 0C59.8 35.3 60.2 23.4 53.1 18.8z" fill="#454545" data-fill-palette-color="accent"></path></g><g fill="#454545" data-fill-palette-color="accent"><path d="M40.2 39C40.2 39 40.2 39 40.2 39 40.3 39 40.2 39 40.2 39z" fill="#454545" data-fill-palette-color="accent"></path><path d="M40.2 39C40.2 39 40.3 39 40.2 39 40.3 39 40.2 39 40.2 39z" fill="#454545" data-fill-palette-color="accent"></path><path d="M5.7 50.7c0.4-0.6 0.9-1.2 1.3-1.8 3-4.1 3.5-8.5 1.9-13.4-2.4-7.3-0.5-19.8 3.7-26.2 0.3-0.5 0.7-0.9 1-1.3-1 2.2-2.1 4.3-2.8 6.6-0.8 2.3-1 4.8 0.6 7.1C11.3 9.5 18.5 3.4 28.9 0c-6.8 2.6-12.3 6.8-14.5 14.2-1.2 4.2-0.6 10 1.5 13.4 0-1.1 0-1.8 0-2.5-0.8-9.3 3.5-15.8 11.4-20.4 6.3-3.6 16.2-5.3 26.1-3.3 7.4 1.5 13.1 10.2 6.5 6.4-6.7-3.9-23-6.4-33.6 3.4-5.3 4.9-7.6 11.2-7.1 18.3 0.2 3.7 0.7 10.7 6.8 20.5 0.8 1.2 1.7 2.7 2.7 4.1 2.5 3.3 5 6.4 7.6 9.6 5.1 6.2 4.9 13.4-0.8 19-2.5 2.4-5.4 4.4-8.1 6.6-0.2-0.2-0.3-0.3-0.5-0.5 0.7-0.9 1.5-1.9 2.2-2.8 2.2-3 3.6-6.1 2.9-9.9-0.6-3-1.3-3.5-4.1-2.5-2.4 0.8-4.8 1.6-7.2 2.2-1.2 0.3-2.6 0.2-3.9 0-3-0.6-4.4-3-4-6 0.1-0.9-0.1-2.1-0.6-2.9-0.7-1.1-1-2-0.6-3.4 0.2-0.5-0.3-1.6-0.8-1.9-1.1-0.6-1.5-1.3-1.3-2.5 0.2-1.3-0.4-2.2-1.6-2.7-0.3-0.1-0.6-0.3-0.9-0.5C4.3 54.4 4 53.1 5.7 50.7z" fill="#454545" data-fill-palette-color="accent"></path></g></svg></g></svg></g></svg></g><defs></defs></svg><rect width="395.52" height="107.40353611342367" fill="none" stroke="none" visibility="hidden"></rect></g></svg></g></svg>